<?xml version="1.0" encoding="UTF-8" standalone="no" ?>
<!DOCTYPE svg PUBLIC "-//W3C//DTD SVG 1.1//EN" "http://www.w3.org/Graphics/SVG/1.1/DTD/svg11.dtd">
<svg xmlns="http://www.w3.org/2000/svg" xmlns:xlink="http://www.w3.org/1999/xlink" version="1.1" width="400" height="400" viewBox="0 0 400 400" xml:space="preserve">
<desc>Created with Fabric.js 3.6.2</desc>
<defs>
</defs>
<g transform="matrix(0.39 0 0 0.39 138.77 272.72)" id="C_-_87_x2C__structure_x2C__Company_x2C__cooperation_x2C__group_x2C__hierarchy_x2C__people_x2C__team"  >
<path style="stroke: none; stroke-width: 1; stroke-dasharray: none; stroke-linecap: butt; stroke-dashoffset: 0; stroke-linejoin: miter; stroke-miterlimit: 4; fill: rgb(0,0,0); fill-rule: nonzero; opacity: 1;"  transform=" translate(-99.25, -442.15)" d="M 127.866 412.712 H 70.924 c -14.209 0 -25.77 11.498 -25.77 25.631 v 33.253 h 108.185 v -33.549 C 153.339 424.077 141.912 412.712 127.866 412.712 z" stroke-linecap="round" />
</g>
<g transform="matrix(0.39 0 0 0.39 200 166.07)" id="C_-_87_x2C__structure_x2C__Company_x2C__cooperation_x2C__group_x2C__hierarchy_x2C__people_x2C__team"  >
<path style="stroke: none; stroke-width: 1; stroke-dasharray: none; stroke-linecap: butt; stroke-dashoffset: 0; stroke-linejoin: miter; stroke-miterlimit: 4; fill: rgb(0,0,0); fill-rule: nonzero; opacity: 1;"  transform=" translate(-256, -169.13)" d="M 310.093 165.026 c 0 -13.97 -11.429 -25.334 -25.476 -25.334 h -56.94 c -14.215 0 -25.779 11.498 -25.779 25.631 v 33.254 h 108.195 V 165.026 z" stroke-linecap="round" />
</g>
<g transform="matrix(0.39 0 0 0.39 261.23 236.53)" id="C_-_87_x2C__structure_x2C__Company_x2C__cooperation_x2C__group_x2C__hierarchy_x2C__people_x2C__team"  >
<path style="stroke: none; stroke-width: 1; stroke-dasharray: none; stroke-linecap: butt; stroke-dashoffset: 0; stroke-linejoin: miter; stroke-miterlimit: 4; fill: rgb(0,0,0); fill-rule: nonzero; opacity: 1;"  transform=" translate(-412.74, -349.52)" d="M 412.75 385.955 c 20.202 0 36.638 -16.342 36.638 -36.431 c 0 -20.092 -16.436 -36.438 -36.638 -36.438 c -20.209 0 -36.65 16.346 -36.65 36.438 C 376.1 369.613 392.541 385.955 412.75 385.955 z" stroke-linecap="round" />
</g>
<g transform="matrix(0.39 0 0 0.39 261.23 272.72)" id="C_-_87_x2C__structure_x2C__Company_x2C__cooperation_x2C__group_x2C__hierarchy_x2C__people_x2C__team"  >
<path style="stroke: none; stroke-width: 1; stroke-dasharray: none; stroke-linecap: butt; stroke-dashoffset: 0; stroke-linejoin: miter; stroke-miterlimit: 4; fill: rgb(0,0,0); fill-rule: nonzero; opacity: 1;"  transform=" translate(-412.75, -442.15)" d="M 441.37 412.712 h -56.941 c -14.215 0 -25.779 11.498 -25.779 25.631 v 33.253 h 108.196 v -33.549 C 466.846 424.077 455.418 412.712 441.37 412.712 z" stroke-linecap="round" />
</g>
<g transform="matrix(0.39 0 0 0.39 200 223.28)" id="C_-_87_x2C__structure_x2C__Company_x2C__cooperation_x2C__group_x2C__hierarchy_x2C__people_x2C__team"  >
<path style="stroke: none; stroke-width: 1; stroke-dasharray: none; stroke-linecap: butt; stroke-dashoffset: 0; stroke-linejoin: miter; stroke-miterlimit: 4; fill: rgb(0,0,0); fill-rule: nonzero; opacity: 1;"  transform=" translate(-256, -315.6)" d="M 337.179 394.521 l -76.498 -57.101 v -104.49 c 0 -2.588 -2.097 -4.686 -4.685 -4.686 c -2.587 0 -4.686 2.097 -4.686 4.686 v 104.49 l -76.49 57.101 c -2.074 1.549 -2.499 4.484 -0.952 6.559 c 0.92 1.232 2.331 1.882 3.758 1.882 c 0.975 0 1.958 -0.303 2.8 -0.931 l 75.569 -56.414 l 75.576 56.414 c 0.842 0.628 1.825 0.931 2.8 0.931 c 1.429 0 2.839 -0.65 3.759 -1.882 C 339.678 399.006 339.252 396.069 337.179 394.521 z" stroke-linecap="round" />
</g>
<g transform="matrix(0.39 0 0 0.39 138.24 236.53)" id="C_-_87_x2C__structure_x2C__Company_x2C__cooperation_x2C__group_x2C__hierarchy_x2C__people_x2C__team"  >
<path style="stroke: none; stroke-width: 1; stroke-dasharray: none; stroke-linecap: butt; stroke-dashoffset: 0; stroke-linejoin: miter; stroke-miterlimit: 4; fill: rgb(0,0,0); fill-rule: nonzero; opacity: 1;"  transform=" translate(-97.9, -349.52)" d="M 97.901 385.955 c 20.202 0 36.638 -16.342 36.638 -36.431 c 0 -20.092 -16.436 -36.438 -36.638 -36.438 c -20.209 0 -36.649 16.346 -36.649 36.438 C 61.251 369.613 77.692 385.955 97.901 385.955 z" stroke-linecap="round" />
</g>
<g transform="matrix(0.39 0 0 0.39 199.18 130.02)" id="C_-_87_x2C__structure_x2C__Company_x2C__cooperation_x2C__group_x2C__hierarchy_x2C__people_x2C__team"  >
<path style="stroke: none; stroke-width: 1; stroke-dasharray: none; stroke-linecap: butt; stroke-dashoffset: 0; stroke-linejoin: miter; stroke-miterlimit: 4; fill: rgb(0,0,0); fill-rule: nonzero; opacity: 1;"  transform=" translate(-253.91, -76.84)" d="M 253.92 113.274 c 20.203 0 36.637 -16.342 36.637 -36.43 c 0 -20.092 -16.434 -36.438 -36.637 -36.438 c -20.209 0 -36.65 16.346 -36.65 36.438 C 217.27 96.932 233.711 113.274 253.92 113.274 z" stroke-linecap="round" />
</g>
</svg>